<svg width="21" height="21" viewBox="0 0 21 21" fill="none" xmlns="http://www.w3.org/2000/svg">
<g opacity="0.4">
<path fill-rule="evenodd" clip-rule="evenodd" d="M2.54 0.162109H5.92C7.33 0.162109 8.46 1.31213 8.46 2.72315V6.1322C8.46 7.55222 7.33 8.69224 5.92 8.69224H2.54C1.14 8.69224 0 7.55222 0 6.1322V2.72315C0 1.31213 1.14 0.162109 2.54 0.162109ZM2.54 11.6319H5.92C7.33 11.6319 8.46 12.7729 8.46 14.193V17.602C8.46 19.012 7.33 20.1621 5.92 20.1621H2.54C1.14 20.1621 0 19.012 0 17.602V14.193C0 12.7729 1.14 11.6319 2.54 11.6319ZM17.461 0.162109H14.081C12.671 0.162109 11.541 1.31213 11.541 2.72315V6.1322C11.541 7.55222 12.671 8.69224 14.081 8.69224H17.461C18.861 8.69224 20.001 7.55222 20.001 6.1322V2.72315C20.001 1.31213 18.861 0.162109 17.461 0.162109ZM14.0791 11.6319H17.4591C18.8591 11.6319 19.9991 12.7729 19.9991 14.193V17.602C19.9991 19.012 18.8591 20.1621 17.4591 20.1621H14.0791C12.6691 20.1621 11.5391 19.012 11.5391 17.602V14.193C11.5391 12.7729 12.6691 11.6319 14.0791 11.6319Z" fill="#01C8FB"/>
</g>
</svg>
