<svg width="20" height="21" viewBox="0 0 20 21" fill="none" xmlns="http://www.w3.org/2000/svg">
<path fill-rule="evenodd" clip-rule="evenodd" d="M2.54 0.164062H5.92C7.33 0.164062 8.46 1.31408 8.46 2.7251V6.13415C8.46 7.55417 7.33 8.69419 5.92 8.69419H2.54C1.14 8.69419 0 7.55417 0 6.13415V2.7251C0 1.31408 1.14 0.164062 2.54 0.164062ZM2.54 11.6339H5.92C7.33 11.6339 8.46 12.7749 8.46 14.1949V17.604C8.46 19.014 7.33 20.164 5.92 20.164H2.54C1.14 20.164 0 19.014 0 17.604V14.1949C0 12.7749 1.14 11.6339 2.54 11.6339ZM17.461 0.164062H14.081C12.671 0.164062 11.541 1.31408 11.541 2.7251V6.13415C11.541 7.55417 12.671 8.69419 14.081 8.69419H17.461C18.861 8.69419 20.001 7.55417 20.001 6.13415V2.7251C20.001 1.31408 18.861 0.164062 17.461 0.164062ZM14.0791 11.6339H17.4591C18.8591 11.6339 19.9991 12.7749 19.9991 14.1949V17.604C19.9991 19.014 18.8591 20.164 17.4591 20.164H14.0791C12.6691 20.164 11.5391 19.014 11.5391 17.604V14.1949C11.5391 12.7749 12.6691 11.6339 14.0791 11.6339Z" fill="#858585"/>
</svg>
