<svg width="18" height="21" viewBox="0 0 18 21" fill="none" xmlns="http://www.w3.org/2000/svg">
<path fill-rule="evenodd" clip-rule="evenodd" d="M7.24352 9.76243C6.87894 9.76243 6.59066 10.092 6.59066 10.5089C6.59066 10.9161 6.87894 11.2554 7.24352 11.2554H12.3307V15.8893C12.3307 18.2645 10.6435 20.2033 8.55772 20.2033H4.4286C2.35132 20.2033 0.664062 18.2742 0.664062 15.899V5.12848C0.664062 2.74365 2.3598 0.814453 4.43708 0.814453H8.57467C10.6435 0.814453 12.3307 2.74365 12.3307 5.11879V9.76243H7.24352ZM15.3561 7.1541L17.7894 9.97518C17.9144 10.1206 17.9811 10.3048 17.9811 10.5084C17.9811 10.7023 17.9144 10.8962 17.7894 11.0319L15.3561 13.853C15.2311 13.9984 15.0644 14.0759 14.9061 14.0759C14.7394 14.0759 14.5727 13.9984 14.4477 13.853C14.1977 13.5621 14.1977 13.0871 14.4477 12.7963L15.7811 11.2549H12.3311V9.76191H15.7811L14.4477 8.22049C14.1977 7.92966 14.1977 7.45463 14.4477 7.1638C14.6977 6.86327 15.1061 6.86327 15.3561 7.1541Z" fill="#6EC4CF"/>
</svg>
