<svg width="19" height="21" viewBox="0 0 19 21" fill="none" xmlns="http://www.w3.org/2000/svg">
<path fill-rule="evenodd" clip-rule="evenodd" d="M17.9023 11.7402C18.26 11.9302 18.536 12.2302 18.7301 12.5302C19.1083 13.1502 19.0776 13.9102 18.7097 14.5802L17.9943 15.7802C17.6162 16.4202 16.911 16.8202 16.1855 16.8202C15.8278 16.8202 15.4292 16.7202 15.1022 16.5202C14.8365 16.3502 14.5299 16.2902 14.2029 16.2902C13.1911 16.2902 12.3429 17.1202 12.3122 18.1102C12.3122 19.2602 11.372 20.1602 10.1968 20.1602H8.80692C7.62145 20.1602 6.68125 19.2602 6.68125 18.1102C6.66081 17.1202 5.81259 16.2902 4.80085 16.2902C4.46361 16.2902 4.15702 16.3502 3.90153 16.5202C3.5745 16.7202 3.16572 16.8202 2.81825 16.8202C2.08245 16.8202 1.37729 16.4202 0.99917 15.7802L0.29402 14.5802C-0.0841044 13.9302 -0.104544 13.1502 0.273581 12.5302C0.437094 12.2302 0.743681 11.9302 1.09115 11.7402C1.37729 11.6002 1.56125 11.3702 1.73498 11.1002C2.24596 10.2402 1.93937 9.11016 1.07071 8.60016C0.0589696 8.03016 -0.268057 6.76016 0.314459 5.77016L0.99917 4.59016C1.59191 3.60016 2.85913 3.25016 3.88109 3.83016C4.77019 4.31016 5.925 3.99016 6.4462 3.14016C6.60972 2.86016 6.70169 2.56016 6.68125 2.26016C6.66081 1.87016 6.77323 1.50016 6.9674 1.20016C7.34553 0.580156 8.03024 0.180156 8.77627 0.160156H10.2172C10.9735 0.160156 11.6582 0.580156 12.0363 1.20016C12.2203 1.50016 12.3429 1.87016 12.3122 2.26016C12.2918 2.56016 12.3838 2.86016 12.5473 3.14016C13.0685 3.99016 14.2233 4.31016 15.1226 3.83016C16.1344 3.25016 17.4118 3.60016 17.9943 4.59016L18.679 5.77016C19.2718 6.76016 18.9447 8.03016 17.9228 8.60016C17.0541 9.11016 16.7475 10.2402 17.2687 11.1002C17.4322 11.3702 17.6162 11.6002 17.9023 11.7402ZM6.60938 10.16C6.60938 11.73 7.90726 12.98 9.51173 12.98C11.1162 12.98 12.3834 11.73 12.3834 10.16C12.3834 8.58999 11.1162 7.32999 9.51173 7.32999C7.90726 7.32999 6.60938 8.58999 6.60938 10.16Z" fill="#9BA1AA"/>
</svg>
