<svg width="20" height="20" viewBox="0 0 20 20" fill="none" xmlns="http://www.w3.org/2000/svg">
<path fill-rule="evenodd" clip-rule="evenodd" d="M15.1797 2.40997C15.1797 1.07999 16.2597 0 17.5897 0C18.9197 0 19.9997 1.07999 19.9997 2.40997C19.9997 3.73995 18.9197 4.81994 17.5897 4.81994C16.2597 4.81994 15.1797 3.73995 15.1797 2.40997ZM11.3299 12.7592L14.2199 9.0302L14.1799 9.0502C14.3399 8.83021 14.3699 8.55021 14.2599 8.30021C14.1509 8.05022 13.9099 7.88022 13.6509 7.86022C13.3799 7.83022 13.1109 7.95022 12.9499 8.17021L10.5309 11.3002L7.75995 9.1202C7.58995 8.9902 7.38995 8.9392 7.18995 8.9602C6.99095 8.9902 6.81095 9.0992 6.68995 9.2592L3.73095 13.1101L3.66995 13.2001C3.49995 13.5191 3.57995 13.9291 3.87995 14.1501C4.01995 14.2401 4.16995 14.3001 4.33995 14.3001C4.57095 14.3101 4.78995 14.1891 4.92995 14.0001L7.43995 10.7692L10.2899 12.9102L10.3799 12.9692C10.6999 13.1391 11.0999 13.0601 11.3299 12.7592ZM13.45 1.7803C13.41 2.0303 13.39 2.2803 13.39 2.53029C13.39 4.78026 15.21 6.59924 17.45 6.59924C17.7 6.59924 17.94 6.57024 18.19 6.53024V14.5991C18.19 17.9901 16.19 20.0001 12.79 20.0001H5.401C2 20.0001 0 17.9901 0 14.5991V7.20023C0 3.80027 2 1.7803 5.401 1.7803H13.45Z" fill="#9BA1AA"/>
</svg>
