<svg width="60" height="60" viewBox="0 0 60 60" fill="none" xmlns="http://www.w3.org/2000/svg">
<rect opacity="0.1" width="60" height="60" rx="30" fill="#FF69B4"/>
<path fill-rule="evenodd" clip-rule="evenodd" d="M35.1801 22.41C35.1801 21.08 36.2601 20 37.5901 20C38.9201 20 40.0001 21.08 40.0001 22.41C40.0001 23.74 38.9201 24.82 37.5901 24.82C36.2601 24.82 35.1801 23.74 35.1801 22.41ZM31.33 32.7593L34.22 29.0303L34.18 29.0503C34.34 28.8303 34.37 28.5503 34.26 28.3003C34.151 28.0503 33.91 27.8803 33.651 27.8603C33.38 27.8303 33.111 27.9503 32.95 28.1703L30.531 31.3003L27.76 29.1203C27.59 28.9903 27.39 28.9393 27.19 28.9603C26.991 28.9903 26.811 29.0993 26.69 29.2593L23.731 33.1103L23.67 33.2003C23.5 33.5193 23.58 33.9293 23.88 34.1503C24.02 34.2403 24.17 34.3003 24.34 34.3003C24.571 34.3103 24.79 34.1893 24.93 34.0003L27.44 30.7693L30.29 32.9103L30.38 32.9693C30.7 33.1393 31.1 33.0603 31.33 32.7593ZM33.45 21.7803C33.41 22.0303 33.39 22.2803 33.39 22.5303C33.39 24.7803 35.21 26.5993 37.45 26.5993C37.7 26.5993 37.94 26.5703 38.19 26.5303V34.5993C38.19 37.9903 36.19 40.0003 32.79 40.0003H25.401C22 40.0003 20 37.9903 20 34.5993V27.2003C20 23.8003 22 21.7803 25.401 21.7803H33.45Z" fill="#FF69B4"/>
</svg>
