<svg width="30" height="30" viewBox="0 0 30 30" fill="none" xmlns="http://www.w3.org/2000/svg">
<g clip-path="url(#clip0_1009_9328)">
<path d="M24.7623 15.1878C24.7623 14.3684 24.6959 13.7705 24.552 13.1504H15.1953V16.8487H20.6875C20.5768 17.7678 19.9788 19.1519 18.65 20.082L18.6314 20.2058L21.5898 22.4976L21.7948 22.5181C23.6771 20.7796 24.7623 18.2218 24.7623 15.1878Z" fill="#4285F4"/>
<path d="M15.1937 24.9322C17.8844 24.9322 20.1432 24.0463 21.7932 22.5183L18.6484 20.0822C17.8069 20.669 16.6774 21.0787 15.1937 21.0787C12.5583 21.0787 10.3216 19.3403 9.5243 16.9375L9.40743 16.9474L6.33124 19.3281L6.29102 19.4399C7.9298 22.6954 11.296 24.9322 15.1937 24.9322Z" fill="#34A853"/>
<path d="M9.52478 16.9363C9.3144 16.3163 9.19264 15.6518 9.19264 14.9653C9.19264 14.2788 9.3144 13.6144 9.51371 12.9944L9.50814 12.8623L6.3934 10.4434L6.29149 10.4918C5.61607 11.8427 5.22852 13.3598 5.22852 14.9653C5.22852 16.5709 5.61607 18.0879 6.29149 19.4388L9.52478 16.9363Z" fill="#FBBC05"/>
<path d="M15.1937 8.85336C17.065 8.85336 18.3273 9.66168 19.0471 10.3372L21.8596 7.59107C20.1322 5.9855 17.8844 5 15.1937 5C11.296 5 7.92979 7.23672 6.29102 10.4921L9.51323 12.9947C10.3216 10.5918 12.5583 8.85336 15.1937 8.85336Z" fill="#EB4335"/>
</g>
<defs>
<clipPath id="clip0_1009_9328">
<rect width="19.542" height="20" fill="white" transform="translate(5.22852 5)"/>
</clipPath>
</defs>
</svg>
