<svg width="60" height="60" viewBox="0 0 60 60" fill="none" xmlns="http://www.w3.org/2000/svg">
<rect opacity="0.1" width="60" height="60" rx="30" fill="#F21111"/>
<path fill-rule="evenodd" clip-rule="evenodd" d="M33.85 20.5002C34.481 20.5002 35.111 20.5892 35.71 20.7902C39.401 21.9902 40.731 26.0402 39.62 29.5802C38.99 31.3892 37.96 33.0402 36.611 34.3892C34.68 36.2592 32.561 37.9192 30.28 39.3492L30.03 39.5002L29.77 39.3392C27.481 37.9192 25.35 36.2592 23.401 34.3792C22.061 33.0302 21.03 31.3892 20.39 29.5802C19.26 26.0402 20.59 21.9902 24.321 20.7692C24.611 20.6692 24.91 20.5992 25.21 20.5602H25.33C25.611 20.5192 25.89 20.5002 26.17 20.5002H26.28C26.91 20.5192 27.52 20.6292 28.111 20.8302H28.17C28.21 20.8492 28.24 20.8702 28.26 20.8892C28.481 20.9602 28.69 21.0402 28.89 21.1502L29.27 21.3202C29.3618 21.3691 29.4649 21.444 29.554 21.5086C29.6104 21.5496 29.6612 21.5865 29.7 21.6102C29.7163 21.6198 29.7329 21.6295 29.7496 21.6392C29.8354 21.6893 29.9247 21.7414 30 21.7992C31.111 20.9502 32.46 20.4902 33.85 20.5002ZM36.51 27.7002C36.92 27.6892 37.27 27.3602 37.3 26.9392V26.8202C37.33 25.4192 36.481 24.1502 35.19 23.6602C34.78 23.5192 34.33 23.7402 34.18 24.1602C34.04 24.5802 34.26 25.0402 34.68 25.1892C35.321 25.4292 35.75 26.0602 35.75 26.7592V26.7902C35.731 27.0192 35.8 27.2402 35.94 27.4102C36.08 27.5802 36.29 27.6792 36.51 27.7002Z" fill="#EC2222"/>
</svg>
