<svg width="131" height="44" viewBox="0 0 131 44" fill="none" xmlns="http://www.w3.org/2000/svg">
<g clip-path="url(#clip0_1009_9934)">
<path d="M108.953 14.6947C108.652 14.3964 108.501 14.0299 108.501 13.5953C108.501 13.4731 108.538 13.2288 108.613 12.8634C108.689 12.4969 108.932 11.9477 109.344 11.2148C109.631 10.7131 110.042 10.4288 110.576 10.3596C110.672 10.3466 110.762 10.3391 110.844 10.3391C111.283 10.3391 111.703 10.4548 112.108 10.685C112.512 10.9164 112.727 11.2418 112.755 11.6612V11.7023H112.714L112.632 11.6818C112.426 11.6818 112.187 11.8612 111.912 12.2212C111.638 12.5802 111.35 13.0526 111.05 13.6353C111.009 13.7034 110.967 13.778 110.927 13.8591C110.693 14.3877 110.433 14.7748 110.145 15.018C110.036 15.1131 109.919 15.1607 109.796 15.1607C109.549 15.1607 109.268 15.005 108.953 14.6926V14.6947ZM130.999 20.5748C130.108 22.1618 128.927 23.7693 127.455 25.3964C125.982 27.0245 124.458 28.4018 122.883 29.5272C122.129 31.2234 121.41 32.8775 120.726 34.4915C119.548 37.232 118.622 39.3066 117.952 40.7185C117.431 41.7629 116.821 42.5499 116.123 43.0785C115.424 43.6083 114.74 43.8991 114.069 43.9531H113.822C113.247 43.9531 112.747 43.7704 112.322 43.4039C111.897 43.0375 111.684 42.4472 111.684 41.6342C111.684 40.3996 112.064 39.1175 112.825 37.7888C113.586 36.4591 114.551 35.1975 115.722 34.0039C116.893 32.8104 118.136 31.7661 119.45 30.871C119.738 30.1791 120.054 29.4331 120.396 28.6331C120.738 27.7791 121.108 26.8969 121.505 25.9877C121.258 26.3672 120.837 26.9607 120.241 27.7683C119.646 28.5747 119.026 29.325 118.382 30.0169C117.737 30.7088 117.218 31.0753 116.82 31.1164C116.108 31.1034 115.597 30.8796 115.289 30.445C114.981 30.0115 114.826 29.4342 114.826 28.7164C114.826 27.8602 114.998 26.8666 115.326 25.7477C114.161 26.7488 113.124 27.5175 112.217 28.045C112.244 28.3704 112.257 28.7023 112.257 29.0418C112.257 30.6148 111.959 32.3856 111.363 34.3521C110.767 36.3185 110.011 38.1434 109.094 39.8256C108.177 41.5077 107.395 42.565 106.752 42.9996C106.546 43.1218 106.3 43.1823 106.012 43.1823C105.876 43.1823 105.649 43.152 105.334 43.0904C105.019 43.0299 104.683 42.8364 104.328 42.511C104.012 42.2396 103.855 41.9012 103.855 41.4937L103.876 41.3099C104.464 38.271 105.78 34.2904 107.82 29.3661C107.587 29.191 107.472 28.9737 107.472 28.7153C107.472 28.6072 107.52 28.4202 107.616 28.1553C107.712 27.8904 108.047 27.6569 108.622 27.4537C109.052 26.445 109.478 25.4612 109.901 24.4991C108.921 25.9726 107.897 27.3834 106.824 28.725C105.624 30.2245 104.69 31.0277 104.02 31.1358H103.917C103.274 31.1358 102.76 30.871 102.376 30.3423C102.13 30.0029 102.007 29.4948 102.007 28.8158C102.007 28.3953 102.055 27.9077 102.151 27.351C102.347 26.3931 102.622 25.4115 102.963 24.4104C101.947 25.3715 100.888 26.0958 99.7874 26.5769C98.39 28.9239 97.0757 30.3888 95.8432 30.9715C95.5823 31.0666 95.3224 31.1142 95.0615 31.1142C94.7329 31.1142 94.3596 31.0126 93.9415 30.8093C93.5234 30.6061 93.2461 30.2331 93.1096 29.6904C93.0812 29.5823 93.0681 29.4807 93.0681 29.3856C93.0681 28.938 93.3007 28.4699 93.7668 27.9812C94.2733 27.4115 95.3006 26.9845 96.8497 26.6991C97.0549 26.3466 97.3628 25.7391 97.7732 24.8785C98.1837 24.0169 98.5854 23.098 98.9752 22.1207C99.366 21.1445 99.6302 20.3099 99.7666 19.618C99.8081 19.4277 99.8288 19.2645 99.8288 19.1293C99.8288 18.7639 99.6989 18.5802 99.438 18.5802C99.1509 18.5802 98.6236 18.9131 97.8562 19.5769C97.0888 20.2418 96.0069 21.3466 94.6096 22.8937C93.7603 24.698 92.9077 26.6861 92.0518 28.8558C91.1959 31.0266 90.4427 33.1283 89.791 35.1629C89.1414 37.1975 88.7058 38.9131 88.4864 40.3099C88.4176 40.7845 88.3838 41.1985 88.3838 41.551C88.3838 42.2288 88.5203 42.6558 88.7943 42.8331C88.8074 42.8331 88.815 42.8396 88.815 42.8537C88.815 42.8677 88.8074 42.8807 88.7943 42.8937C88.6163 43.0699 88.3554 43.1585 88.0126 43.1585C87.8893 43.1585 87.66 43.1283 87.3249 43.0677C86.9887 43.0061 86.6098 42.8126 86.1852 42.4883C85.8293 42.2169 85.6514 41.8904 85.6514 41.511C85.6514 41.4429 85.6579 41.3683 85.671 41.2872C85.9046 38.9942 86.5618 36.2504 87.6437 33.0558C88.4984 30.5315 89.4318 28.0731 90.4361 25.6764C90.3237 25.8375 90.2156 25.9942 90.0988 26.1585C89.1742 27.4677 88.2703 28.6072 87.386 29.5769C86.5029 30.5477 85.7944 31.0591 85.2595 31.1131H85.1983C84.8828 31.1131 84.5619 31.018 84.2333 30.8288C83.9047 30.6385 83.658 30.272 83.4931 29.7293C83.4244 29.4991 83.3905 29.2202 83.3905 28.8948C83.3905 28.4612 83.4517 27.9456 83.575 27.3488C83.8632 26.1683 84.3599 24.711 85.0651 22.9737C85.7704 21.2375 86.4177 19.9088 87.0072 18.9856C86.6502 19.311 86.0334 20.0169 85.1579 21.1023C84.2813 22.1877 83.3425 23.3737 82.3436 24.6634C81.3436 25.952 80.4801 27.071 79.7553 28.0202C79.7138 28.0742 79.6734 28.1218 79.6319 28.1629C79.4125 28.4472 79.2411 28.6785 79.1177 28.8548C78.9387 29.0991 78.8066 29.272 78.7171 29.3737C78.6276 29.4753 78.5555 29.5261 78.5009 29.5261H78.418C78.3634 29.5261 78.3023 29.5196 78.2335 29.5056C78.1931 29.4926 78.144 29.4785 78.0894 29.4656C77.2259 29.2353 76.7947 28.8072 76.7947 28.1834C76.7947 28.1564 76.7979 27.9769 76.8045 27.6439C76.811 27.311 76.9584 26.8126 77.2466 26.1488C77.5621 25.2537 78.0195 24.0937 78.6232 22.6699C79.2258 21.2461 79.74 20.1066 80.1636 19.2515C79.3284 20.1337 78.263 21.4418 76.9693 23.178C75.6746 24.9153 74.4247 26.725 73.2195 28.6104C73.0961 29.1802 73.035 29.6407 73.035 29.9942C73.035 30.4018 73.1168 30.6656 73.2806 30.7877C73.2937 30.8018 73.3046 30.8115 73.3112 30.818C73.3188 30.8245 73.3144 30.8353 73.3013 30.8483C73.1103 31.0256 72.8494 31.1131 72.5197 31.1131C72.3963 31.1131 72.1638 31.0829 71.821 31.0212C71.4793 30.9607 71.1158 30.7672 70.7326 30.4418C70.4313 30.1975 70.2807 29.9066 70.2807 29.5672C70.2807 29.4591 70.2938 29.3499 70.3222 29.2418C70.6147 27.6861 71.0318 26.1456 71.5601 24.6202C71.2021 25.1369 70.8265 25.6699 70.4248 26.2299C69.4794 27.5466 68.5613 28.6991 67.6716 29.6893C66.7808 30.6796 66.0898 31.1748 65.5964 31.1748C64.842 31.1748 64.3289 30.951 64.0549 30.5034C63.8355 30.111 63.7263 29.6353 63.7263 29.0796C63.7263 28.9845 63.7361 28.7445 63.7569 28.3575C63.7776 27.9704 63.8901 27.405 64.0953 26.658C63.2875 27.9196 62.472 28.9877 61.65 29.8623C60.828 30.7369 60.0681 31.1748 59.3695 31.1748C58.7123 31.0115 58.2396 30.6526 57.9514 30.0958C57.6643 29.5402 57.5202 28.8612 57.5202 28.0612C57.5202 27.4148 57.5933 26.7283 57.7353 26.0039C57.7003 26.0526 57.6687 26.0991 57.6326 26.1488C56.6938 27.4645 55.7801 28.6137 54.8893 29.5975C53.9985 30.5812 53.2802 31.1002 52.7322 31.1542C52.6645 31.1683 52.5957 31.1748 52.5269 31.1748C52.2933 31.1748 52.051 31.1175 51.7977 31.0018C51.5444 30.8872 51.325 30.6558 51.1405 30.3099C50.9549 29.9639 50.8621 29.4861 50.8621 28.8753C50.8621 27.8991 51.1842 26.5056 51.8283 24.6937C52.4723 22.8829 53.2562 20.9737 54.1808 18.9661C55.1054 16.9585 56.0126 15.1077 56.9034 13.4115H56.6567C55.9853 13.4115 55.2113 13.4591 54.3347 13.5542C53.54 15.0602 52.5673 16.4029 51.4167 17.5823C50.2661 18.7629 49.1024 19.3996 47.9245 19.4948C46.6636 19.4948 45.6844 19.2342 44.9857 18.711C44.287 18.1888 43.8765 17.5683 43.7532 16.8493C43.739 16.7142 43.7324 16.5845 43.7324 16.4634C43.7324 15.8666 43.93 15.311 44.3285 14.7942C45.013 14.0083 46.0741 13.3737 47.5129 12.8915C48.9506 12.4104 50.4167 12.1012 51.9101 11.9661C52.5957 10.6504 52.9789 9.47097 53.0607 8.42556C53.0738 8.31745 53.0815 8.22232 53.0815 8.14016C53.0815 7.38124 52.6972 7.0007 51.9309 7.0007C51.6569 7.0007 51.3348 7.04826 50.9647 7.1434C49.2246 7.60502 47.4725 8.59529 45.7051 10.1142C43.9388 11.6342 42.4727 13.3369 41.309 15.2212C40.1714 17.0526 39.6027 18.7348 39.6027 20.2677V20.431C39.6846 21.3131 40.1398 22.0688 40.9694 22.7002C41.798 23.3304 42.7401 23.925 43.7947 24.4807C44.8896 25.0375 45.8416 25.6342 46.6505 26.271C47.4583 26.9088 47.8699 27.6753 47.883 28.5704C47.7869 29.5607 47.0915 30.5575 45.7979 31.5607C44.5032 32.565 42.9486 33.4266 41.1343 34.1445C39.3188 34.8634 37.5907 35.2969 35.9467 35.4472C35.6312 35.4742 35.331 35.4872 35.0428 35.4872C33.8376 35.4872 32.9053 35.2093 32.2481 34.6526C31.4261 33.8656 31.0156 32.991 31.0156 32.0277C31.0156 31.8915 31.0527 31.5056 31.1281 30.8677C31.2034 30.2299 32.0221 29.4158 33.5832 28.4266C34.1989 28.0602 35.0384 27.6839 36.1006 27.2969C37.1617 26.911 38.2206 26.6493 39.2752 26.5131C39.5634 26.4731 39.8297 26.4526 40.0765 26.4526C40.762 26.4526 41.3166 26.5888 41.7413 26.8602C42.2467 27.2537 42.5556 27.7488 42.6648 28.3456C42.6779 28.4266 42.6855 28.5077 42.6855 28.5899C42.6855 28.7531 42.6386 28.9358 42.5414 29.1402C42.4454 29.3434 42.1648 29.5672 41.6987 29.8115H41.6375V29.7196C41.6375 29.7002 41.6572 29.6688 41.6987 29.6288C41.9454 29.4526 42.1233 29.2688 42.2325 29.0785C42.274 28.9975 42.2947 28.9229 42.2947 28.8548C42.2947 28.7466 42.2532 28.6375 42.1714 28.5293C41.8428 28.2039 41.3352 28.0407 40.6507 28.0407C40.3767 28.0407 39.8669 28.0991 39.1202 28.2137C38.3735 28.3283 37.391 28.631 36.1716 29.1185C34.9522 29.6072 34.0483 30.0818 33.4599 30.5423C32.8158 31.058 32.4053 31.458 32.2274 31.7423C32.1313 31.9056 32.0833 32.0472 32.0833 32.1693C32.0833 32.2645 32.1313 32.3661 32.2274 32.4742C32.3234 32.5823 32.5352 32.671 32.8638 32.7391C33.2208 32.8202 33.6444 32.8612 34.1378 32.8612C34.8496 32.8612 35.8604 32.7531 37.1683 32.5358C38.4761 32.3185 39.928 31.858 41.524 31.1521C43.12 30.4472 44.2739 29.538 44.9857 28.4256C45.1363 28.1402 45.2117 27.8688 45.2117 27.6115C45.2117 27.1499 44.9246 26.6688 44.3482 26.1672C43.7728 25.6656 42.9104 25.1164 41.7598 24.5196C40.7598 23.9899 39.821 23.4104 38.9444 22.7802C38.0678 22.1499 37.4652 21.4137 37.1366 20.5726C36.9991 20.111 36.9303 19.6299 36.9303 19.1283C36.9303 18.0299 37.3211 16.6872 38.1016 15.1002C38.8833 13.5131 40.0983 11.8818 41.7489 10.2072C43.3995 8.53151 45.0949 7.26664 46.8339 6.41259C47.9572 5.91097 49.1078 5.66016 50.2857 5.66016C50.5597 5.66016 51.1252 5.69799 51.9811 5.77151C52.837 5.8461 53.7168 6.29799 54.6207 7.12502C55.3063 7.74881 55.648 8.55637 55.648 9.54664C55.648 9.85908 55.6131 10.191 55.5454 10.5434C55.4635 10.9239 55.3325 11.3304 55.1546 11.7639C55.9493 11.7099 56.7025 11.6829 57.4154 11.6829H57.8466C58.2844 10.8969 58.661 10.2591 58.9765 9.77043C59.209 9.39097 59.5518 9.2007 60.0037 9.2007C60.0441 9.2007 60.2013 9.21475 60.4764 9.24178C60.7504 9.2688 61.114 9.43529 61.5659 9.74016C62.0179 10.045 62.2438 10.3737 62.2438 10.7272C62.2438 10.7402 62.2362 10.751 62.2231 10.7575C62.21 10.765 62.1947 10.7672 62.1816 10.7672C62.1543 10.7542 62.127 10.7466 62.0997 10.7466C61.8257 10.7466 61.4349 11.1002 60.9284 11.805C63.3945 11.8191 65.9653 11.9953 68.6443 12.3348C71.3221 12.6742 73.5033 13.0537 75.1888 13.4742C75.3384 13.5142 75.4148 13.5423 75.4148 13.5553H75.1888C71.9968 13.2429 69.1203 13.0872 66.5592 13.0872C63.9982 13.0872 61.8268 13.1348 60.0048 13.2299C59.018 14.912 58.0355 16.8515 57.0562 19.0493C56.077 21.2472 55.2484 23.271 54.5705 25.1229C53.8926 26.9748 53.5531 28.1304 53.5531 28.5921C53.5531 28.7002 53.5869 28.7553 53.6557 28.7553C53.8053 28.7553 54.1557 28.4872 54.7037 27.951C55.2517 27.4158 55.9711 26.6353 56.8608 25.6115C57.3597 25.0385 57.8335 24.4839 58.2931 23.9412C58.351 23.7704 58.4099 23.5985 58.4743 23.4245C59.1108 21.7023 59.8618 20.1758 60.7242 18.8461C61.5867 17.5175 62.4021 16.6893 63.1685 16.3639C63.4556 16.2688 63.7307 16.2212 63.9916 16.2212C64.6073 16.2212 65.199 16.5304 65.7688 17.1466C66.3365 17.7639 66.7382 18.6148 66.9708 19.7002C67.2448 19.1985 67.5122 18.7175 67.772 18.2558C68.0046 17.8623 68.355 17.6656 68.82 17.6656C68.8615 17.6656 69.0155 17.6731 69.2818 17.6861C69.5493 17.6991 69.9117 17.8558 70.3713 18.1542C70.8298 18.4526 71.0591 18.7845 71.0591 19.151V19.1715C71.0449 19.1845 71.0285 19.1953 71.0077 19.2018C70.9881 19.2093 70.9641 19.2115 70.9357 19.2115C70.5929 19.2256 70.1726 19.6429 69.6726 20.4634C69.1726 21.2839 68.6759 22.271 68.1836 23.4234C67.6902 24.5769 67.2721 25.658 66.9304 26.6688C66.5876 27.6796 66.4173 28.3412 66.4173 28.6526C66.4173 28.7337 66.4435 28.7748 66.4992 28.7748C66.6367 28.7748 66.9893 28.4969 67.557 27.9402C68.1257 27.3845 68.8583 26.5942 69.7556 25.5704C70.653 24.5466 71.4881 23.5737 72.2621 22.6504C72.2959 22.6104 72.3254 22.5748 72.3581 22.5358C73.2085 20.5056 74.1572 18.5748 75.2107 16.7499C75.4432 16.3564 75.7925 16.1596 76.2587 16.1596C76.287 16.1596 76.4333 16.1629 76.7008 16.1693C76.9672 16.1769 77.3165 16.3218 77.7488 16.6072C78.18 16.8926 78.4234 17.2245 78.478 17.6039C78.478 17.618 78.4747 17.631 78.4682 17.6439C78.4606 17.658 78.4507 17.672 78.4376 17.685H78.3558C77.9988 17.698 77.3689 18.5056 76.465 20.1066C75.5611 21.7066 74.6637 23.8645 73.774 26.5769C74.774 24.9077 75.941 23.1553 77.2772 21.3175C78.6123 19.4796 79.8623 18.045 81.026 17.0137C81.4637 16.6342 81.848 16.3834 82.1766 16.2612C82.3414 16.2072 82.5117 16.1802 82.6908 16.1802C82.9091 16.1802 83.1362 16.2137 83.3687 16.2818C83.7519 16.4039 84.0739 16.5866 84.3337 16.832C84.5935 17.0764 84.7376 17.3337 84.7649 17.605V17.645C84.7649 17.6591 84.7573 17.6731 84.7442 17.6861H84.6416C84.4494 17.7131 84.0903 18.1639 83.563 19.0396C83.0357 19.9142 82.4561 20.9899 81.8273 22.2645C81.1974 23.5402 80.6417 24.7942 80.1625 26.0288C80.2858 25.8526 80.4288 25.6493 80.5937 25.4191C81.2923 24.4429 82.1755 23.245 83.2442 21.8277C84.3119 20.4104 85.3905 19.1358 86.4799 18.0029C87.5694 16.871 88.47 16.2429 89.1818 16.1207H89.3259C89.8052 16.1207 90.244 16.2493 90.6414 16.5066C90.9154 16.6839 91.0518 16.9002 91.0518 17.1575C91.0518 17.3066 91.0038 17.4699 90.9077 17.6461C90.7713 17.8634 90.387 18.538 89.7571 19.671C89.1272 20.8039 88.4559 22.1639 87.7441 23.7499C87.0323 25.3369 86.4843 26.911 86.1011 28.471V28.5726C86.1011 28.6537 86.1284 28.6947 86.183 28.6947C86.2649 28.6947 86.457 28.5629 86.7583 28.298C87.0596 28.0331 87.5421 27.5391 88.207 26.8126C88.8718 26.0872 89.5595 25.3034 90.2724 24.4623C90.7822 23.8591 91.256 23.298 91.697 22.7758C92.8313 20.2612 93.829 18.2515 94.6904 16.751C94.9087 16.3575 95.2515 16.1607 95.7176 16.1607C95.7449 16.1607 95.8923 16.1639 96.1597 16.1704C96.4261 16.178 96.7787 16.3229 97.2176 16.6083C97.6553 16.8937 97.8955 17.2256 97.937 17.605V17.645C97.937 17.6591 97.9239 17.6731 97.8955 17.6861H97.8136C97.4163 17.7402 96.7449 18.6699 95.8006 20.4742C96.6903 19.3477 97.64 18.351 98.6455 17.4829C99.652 16.6148 100.464 16.1802 101.08 16.1802C102.011 16.4245 102.532 17.0483 102.641 18.0526C102.654 18.2288 102.662 18.4115 102.662 18.6018C102.662 19.4839 102.46 20.5315 102.056 21.7456C101.651 22.9596 101.107 24.1899 100.423 25.4385C101.634 24.6634 102.629 23.9023 103.419 23.152C103.579 22.7477 103.744 22.3402 103.925 21.9283C104.753 20.0493 105.612 18.3369 106.503 16.791C106.736 16.3985 107.085 16.2018 107.551 16.2018C107.579 16.2018 107.726 16.205 107.993 16.2115C108.261 16.2191 108.617 16.3683 109.062 16.6591C109.508 16.951 109.751 17.2872 109.791 17.6666V17.7066C109.791 17.7207 109.782 17.7304 109.761 17.7369C109.741 17.7445 109.71 17.7466 109.669 17.7466C109.217 17.8277 108.443 18.9131 107.347 21.0018C106.251 23.0915 105.334 25.5672 104.594 28.4288C104.58 28.4829 104.573 28.5304 104.573 28.5715C104.573 28.6937 104.614 28.7542 104.697 28.7542C104.78 28.7542 104.967 28.6385 105.262 28.4083C105.557 28.178 106.043 27.6958 106.721 26.9639C107.398 26.231 108.107 25.432 108.847 24.5629C109.587 23.6948 110.248 22.9045 110.831 22.192C110.907 22.0991 110.971 22.0191 111.041 21.9337C111.978 19.8569 112.894 17.8958 113.788 16.058C115.439 12.6666 116.531 10.5639 117.065 9.74989C117.298 9.37043 117.64 9.18016 118.092 9.18016C118.133 9.18016 118.29 9.18989 118.565 9.21043C118.839 9.23097 119.195 9.39313 119.634 9.69908C120.072 10.0039 120.305 10.3402 120.333 10.7066C120.333 10.7207 120.325 10.7304 120.312 10.7369C120.299 10.7434 120.284 10.7466 120.271 10.7466H120.252C119.895 10.7466 119.282 11.4829 118.412 12.9542C117.542 14.4266 116.532 16.3726 115.382 18.7942C114.232 21.2158 113.074 23.8029 111.91 26.5564C111.923 26.5834 111.941 26.631 111.962 26.6991C111.982 26.7672 112.003 26.8385 112.023 26.9131C112.044 26.9877 112.06 27.0385 112.074 27.0656C113.521 26.1564 114.741 25.2991 115.739 24.4958C116.239 23.1056 116.805 21.7402 117.446 20.4018C118.137 18.9575 118.771 17.7402 119.347 16.7488C119.579 16.3553 119.929 16.1585 120.395 16.1585C120.435 16.1585 120.59 16.1661 120.857 16.1791C121.124 16.1931 121.486 16.3488 121.945 16.6472C122.405 16.9456 122.634 17.2775 122.634 17.6439C122.634 17.658 122.63 17.6677 122.624 17.6742C122.616 17.6807 122.606 17.6915 122.592 17.7045H122.51C122.182 17.7326 121.74 18.2061 121.185 19.1283C120.629 20.0515 120.065 21.1596 119.49 22.4558C118.914 23.751 118.424 24.9823 118.021 26.1488C117.616 27.3153 117.416 28.0947 117.416 28.4883C117.416 28.5423 117.435 28.5693 117.477 28.5693C117.6 28.5693 117.908 28.3488 118.401 27.9077C118.895 27.4666 119.535 26.8288 120.323 25.9953C121.11 25.1607 121.866 24.3304 122.592 23.5023C123.455 21.6029 124.12 20.1931 124.586 19.2699C125.051 18.3477 125.503 17.5066 125.942 16.7466C126.174 16.3531 126.523 16.1564 126.99 16.1564C127.03 16.1564 127.185 16.1639 127.451 16.1769C127.718 16.191 128.081 16.3466 128.541 16.645C128.999 16.9434 129.229 17.2688 129.229 17.6223C129.229 17.6353 129.225 17.6493 129.219 17.6623C129.211 17.6764 129.201 17.6861 129.188 17.6926C129.174 17.6991 129.148 17.7023 129.106 17.7023C128.64 17.7434 127.969 18.6277 127.093 20.3575C126.217 22.0872 125.223 24.2072 124.114 26.7164L123.662 27.7337C125.347 26.4861 126.755 25.2385 127.885 23.9899C129.015 22.7423 129.84 21.765 130.361 21.0602C130.525 20.8569 130.655 20.6937 130.751 20.5715H130.998L130.999 20.5748ZM50.5401 14.165C48.5543 14.4634 47.1428 14.8602 46.3077 15.3553C45.4715 15.8504 45.013 16.2948 44.9311 16.6883C44.9038 16.7834 44.8907 16.871 44.8907 16.9531C44.8907 17.2926 45.1167 17.4623 45.5686 17.4623C45.5817 17.4623 45.74 17.4591 46.0413 17.4526C46.3426 17.4461 46.9518 17.1683 47.8699 16.618C48.788 16.0677 49.6777 15.2515 50.5412 14.1661L50.5401 14.165ZM66.7099 20.2083C66.0658 18.9877 65.4359 18.3769 64.8191 18.3769C64.7776 18.3769 64.5931 18.3942 64.2645 18.4277C63.9359 18.4623 63.5004 18.9293 62.96 19.832C62.4185 20.7348 61.9458 21.792 61.5419 23.0061C61.138 24.2202 60.8225 25.3434 60.5976 26.3737C60.3716 27.405 60.2592 28.0429 60.2592 28.2872C60.2592 28.5996 60.3542 28.7553 60.5463 28.7553C60.5594 28.7553 60.6282 28.7456 60.7515 28.725C60.8749 28.7056 61.1151 28.5499 61.4709 28.2569C61.8268 27.965 62.2067 27.6093 62.6117 27.1888C63.0157 26.7683 63.3988 26.351 63.7624 25.938C64.1248 25.5239 64.4228 25.1748 64.6553 24.8893C65.08 23.6418 65.7645 22.0818 66.7099 20.2093V20.2083ZM96.1325 27.778C95.7755 27.8321 95.4196 27.951 95.0637 28.1337C94.7078 28.3164 94.448 28.5034 94.2832 28.6937C94.2144 28.7748 94.1806 28.8429 94.1806 28.8969C94.1806 28.978 94.2428 29.0396 94.3661 29.0796H94.4895C94.722 29.0796 94.9797 28.9683 95.2602 28.7445C95.5408 28.5207 95.8322 28.1985 96.1346 27.778H96.1325ZM111.665 28.4083C111.446 28.5715 111.206 28.7272 110.945 28.8764C109.11 33.3391 107.815 36.9953 107.062 39.8439L107.022 40.0072C106.98 40.1153 106.954 40.2104 106.94 40.2926V40.4753C106.954 40.4883 106.967 40.4958 106.98 40.4958C107.009 40.4958 107.056 40.472 107.124 40.4245C107.193 40.3769 107.31 40.258 107.474 40.0688C107.953 39.5672 108.528 38.7261 109.2 37.5456C109.871 36.3661 110.461 34.9748 110.966 33.3748C111.432 31.9099 111.665 30.3834 111.665 28.7964V28.4104V28.4083ZM118.712 32.5791C117.083 33.9488 115.716 35.4656 114.613 37.1261C113.511 38.7877 112.959 40.1066 112.959 41.0839C112.959 41.5315 113.062 41.8775 113.267 42.1218C113.363 42.2299 113.48 42.285 113.617 42.285C113.781 42.285 114.011 42.1791 114.304 41.9693C114.599 41.7585 115.007 41.138 115.527 40.1077C115.87 39.3477 116.472 37.9369 117.335 35.8753C117.759 34.858 118.218 33.7596 118.711 32.5791H118.712Z" fill="url(#paint0_linear_1009_9934)"/>
<path d="M10.2213 25.7217L2.57197 16.5801L0 23.5466L9.48113 34.8774L24.1062 32.2752L26.6782 25.3087L14.8783 27.4082C13.1328 27.7185 11.3533 27.0741 10.2213 25.7217Z" fill="url(#paint1_linear_1009_9934)"/>
<path d="M22.3416 0.046875L7.7165 2.64904L5.14453 9.61553L16.9444 7.51606C18.6899 7.20579 20.4693 7.85012 21.6014 9.20255L29.2507 18.3442L31.8227 11.3777L22.3416 0.046875Z" fill="url(#paint2_linear_1009_9934)"/>
<path d="M5.14453 9.61384L14.6257 20.9447L24.1068 32.2755L26.6787 25.309L17.1976 13.9782L7.7165 2.64844L5.14453 9.61384Z" fill="url(#paint3_linear_1009_9934)"/>
</g>
<defs>
<linearGradient id="paint0_linear_1009_9934" x1="64.0888" y1="52.9121" x2="96.4033" y2="-3.60821" gradientUnits="userSpaceOnUse">
<stop stop-color="#010039"/>
<stop offset="0.15" stop-color="#00356C"/>
<stop offset="0.29" stop-color="#006399"/>
<stop offset="0.44" stop-color="#0088BD"/>
<stop offset="0.58" stop-color="#00A5D9"/>
<stop offset="0.72" stop-color="#00BAED"/>
<stop offset="0.86" stop-color="#00C6F9"/>
<stop offset="1" stop-color="#00CBFE"/>
</linearGradient>
<linearGradient id="paint1_linear_1009_9934" x1="23.9273" y1="32.2136" x2="0.537871" y2="23.5798" gradientUnits="userSpaceOnUse">
<stop stop-color="#010039"/>
<stop offset="0.15" stop-color="#00356C"/>
<stop offset="0.29" stop-color="#006399"/>
<stop offset="0.44" stop-color="#0088BD"/>
<stop offset="0.58" stop-color="#00A5D9"/>
<stop offset="0.72" stop-color="#00BAED"/>
<stop offset="0.86" stop-color="#00C6F9"/>
<stop offset="1" stop-color="#00CBFE"/>
</linearGradient>
<linearGradient id="paint2_linear_1009_9934" x1="8.33753" y1="2.87785" x2="31.0508" y2="11.262" gradientUnits="userSpaceOnUse">
<stop stop-color="#010039"/>
<stop offset="0.15" stop-color="#00356C"/>
<stop offset="0.29" stop-color="#006399"/>
<stop offset="0.44" stop-color="#0088BD"/>
<stop offset="0.58" stop-color="#00A5D9"/>
<stop offset="0.72" stop-color="#00BAED"/>
<stop offset="0.86" stop-color="#00C6F9"/>
<stop offset="1" stop-color="#00CBFE"/>
</linearGradient>
<linearGradient id="paint3_linear_1009_9934" x1="6.90224" y1="6.22064" x2="29.039" y2="34.2769" gradientUnits="userSpaceOnUse">
<stop stop-color="#010039"/>
<stop offset="0.15" stop-color="#00356C"/>
<stop offset="0.29" stop-color="#006399"/>
<stop offset="0.44" stop-color="#0088BD"/>
<stop offset="0.58" stop-color="#00A5D9"/>
<stop offset="0.72" stop-color="#00BAED"/>
<stop offset="0.86" stop-color="#00C6F9"/>
<stop offset="1" stop-color="#00CBFE"/>
</linearGradient>
<clipPath id="clip0_1009_9934">
<rect width="131" height="44" fill="white"/>
</clipPath>
</defs>
</svg>
