<svg width="10" height="9" viewBox="0 0 10 9" fill="none" xmlns="http://www.w3.org/2000/svg">
<path d="M8.8 9L5.65 5.85C5.4 6.05 5.1125 6.20833 4.7875 6.325C4.4625 6.44167 4.11667 6.5 3.75 6.5C2.84167 6.5 2.073 6.18533 1.444 5.556C0.815 4.92667 0.500333 4.158 0.5 3.25C0.5 2.34167 0.814667 1.573 1.444 0.944C2.07333 0.315 2.842 0.000333333 3.75 0C4.65833 0 5.427 0.314667 6.056 0.944C6.685 1.57333 6.99967 2.342 7 3.25C7 3.61667 6.94167 3.9625 6.825 4.2875C6.70833 4.6125 6.55 4.9 6.35 5.15L9.5 8.3L8.8 9ZM3.75 5.5C4.375 5.5 4.90633 5.28117 5.344 4.8435C5.78167 4.40583 6.00033 3.87467 6 3.25C6 2.625 5.78117 2.09367 5.3435 1.656C4.90583 1.21833 4.37467 0.999667 3.75 1C3.125 1 2.59367 1.21883 2.156 1.6565C1.71833 2.09417 1.49967 2.62533 1.5 3.25C1.5 3.875 1.71883 4.40633 2.1565 4.844C2.59417 5.28167 3.12533 5.50033 3.75 5.5Z" fill="#8A8A8A"/>
</svg>
