<svg width="1440" height="829" viewBox="0 0 1440 829" fill="none" xmlns="http://www.w3.org/2000/svg">
<g clip-path="url(#clip0_1563_2976)">
<rect width="1441" height="829" rx="4" fill="#BFF2FE"/>
<path d="M1265.52 800.626C1266.19 802.51 1266.89 804.391 1267.61 806.27L1269.01 805.731C1269.37 806.664 1269.74 807.597 1270.11 808.529C1270.48 809.461 1270.86 810.389 1271.24 811.314L1269.86 811.887C1270.63 813.747 1271.42 815.592 1272.22 817.421L1273.6 816.814C1274.41 818.646 1275.24 820.463 1276.09 822.263L1274.73 822.903C1275.59 824.721 1276.47 826.523 1277.36 828.308L1278.7 827.635C1279.6 829.426 1280.52 831.201 1281.46 832.958L1280.14 833.665C1281.09 835.438 1282.05 837.194 1283.04 838.932L1284.34 838.193C1285.33 839.936 1286.34 841.662 1287.36 843.37L1286.08 844.142C1287.11 845.867 1288.17 847.574 1289.24 849.263L1290.51 848.458C1291.58 850.147 1292.67 851.817 1293.78 853.469L1292.54 854.305C1293.66 855.977 1294.8 857.63 1295.96 859.264L1297.18 858.396C1298.34 860.025 1299.51 861.635 1300.7 863.225L1299.5 864.124C1300.71 865.738 1301.94 867.331 1303.18 868.905L1304.36 867.975C1305.59 869.542 1306.85 871.09 1308.12 872.616L1306.97 873.576C1308.26 875.124 1309.56 876.651 1310.89 878.157L1312.01 877.167C1313.33 878.669 1314.67 880.149 1316.02 881.609L1314.92 882.628C1316.29 884.104 1317.67 885.557 1319.07 886.989L1320.14 885.941C1321.54 887.372 1322.95 888.781 1324.38 890.168L1323.34 891.244C1324.78 892.644 1326.24 894.021 1327.71 895.375L1328.73 894.271C1330.2 895.625 1331.69 896.956 1333.19 898.263L1332.21 899.395C1333.72 900.716 1335.26 902.013 1336.8 903.286L1337.75 902.128C1339.3 903.398 1340.85 904.643 1342.42 905.864L1341.5 907.048C1343.09 908.285 1344.69 909.497 1346.31 910.684L1347.2 909.475C1348.81 910.656 1350.43 911.813 1352.06 912.944L1351.21 914.177C1352.86 915.323 1354.53 916.442 1356.21 917.535L1357.03 916.278C1358.7 917.368 1360.39 918.431 1362.09 919.468L1361.31 920.748C1363.02 921.796 1364.75 922.816 1366.49 923.809L1367.23 922.506C1368.97 923.499 1370.71 924.463 1372.47 925.4L1371.76 926.724C1373.54 927.67 1375.32 928.588 1377.12 929.478L1377.78 928.134C1379.57 929.02 1381.37 929.878 1383.18 930.707L1382.55 932.07C1384.38 932.909 1386.22 933.719 1388.07 934.5L1388.65 933.118C1390.49 933.894 1392.33 934.641 1394.19 935.357L1393.65 936.756C1395.52 937.482 1397.41 938.176 1399.3 938.84L1399.8 937.425C1401.68 938.086 1403.57 938.717 1405.47 939.316L1405.01 940.746C1406.93 941.352 1408.85 941.925 1410.78 942.468L1411.19 941.024C1413.11 941.563 1415.03 942.071 1416.97 942.547L1416.61 944.004C1418.56 944.484 1420.52 944.933 1422.48 945.348L1422.79 943.88C1424.74 944.293 1426.69 944.673 1428.65 945.019L1428.39 946.496C1430.37 946.847 1432.35 947.164 1434.34 947.447L1434.55 945.962C1436.52 946.243 1438.5 946.49 1440.47 946.703L1440.31 948.194C1442.31 948.41 1444.31 948.59 1446.31 948.736L1446.42 947.24C1448.4 947.385 1450.39 947.495 1452.38 947.57L1452.32 949.069C1454.33 949.145 1456.34 949.185 1458.34 949.19L1458.35 947.69C1460.34 947.695 1462.33 947.665 1464.32 947.599L1464.37 949.098C1466.37 949.031 1468.38 948.929 1470.38 948.79L1470.28 947.293C1472.26 947.156 1474.24 946.983 1476.22 946.773L1476.38 948.265C1478.37 948.054 1480.37 947.807 1482.36 947.522L1482.15 946.038C1484.11 945.757 1486.07 945.44 1488.03 945.087L1488.3 946.563C1490.27 946.207 1492.24 945.815 1494.21 945.385L1493.89 943.92C1495.83 943.496 1497.76 943.036 1499.69 942.54L1500.07 943.992C1502 943.494 1503.94 942.958 1505.87 942.386L1505.44 940.948C1507.34 940.383 1509.24 939.782 1511.14 939.143L1511.62 940.565C1513.51 939.926 1515.4 939.251 1517.28 938.54L1516.75 937.137C1517.68 936.784 1518.61 936.423 1519.54 936.052C1520.47 935.681 1521.39 935.302 1522.31 934.916L1522.89 936.299C1524.75 935.519 1526.58 934.708 1528.39 933.867L1527.76 932.507C1529.58 931.666 1531.37 930.794 1533.14 929.893L1533.82 931.229C1535.61 930.316 1537.38 929.373 1539.13 928.4L1538.4 927.089C1540.14 926.12 1541.86 925.121 1543.56 924.093L1544.34 925.377C1546.06 924.334 1547.76 923.262 1549.43 922.162L1548.61 920.908C1550.27 919.815 1551.91 918.693 1553.53 917.543L1554.4 918.766C1556.04 917.601 1557.66 916.409 1559.25 915.188L1558.34 913.998C1559.92 912.786 1561.47 911.547 1563 910.281L1563.96 911.437C1565.51 910.158 1567.03 908.852 1568.53 907.52L1567.54 906.399C1569.02 905.077 1570.49 903.728 1571.93 902.355L1572.96 903.44C1574.42 902.054 1575.84 900.643 1577.25 899.206L1576.17 898.158C1577.56 896.735 1578.93 895.286 1580.27 893.814L1581.38 894.824C1582.73 893.34 1584.05 891.832 1585.35 890.301L1584.21 889.331C1585.5 887.814 1586.76 886.275 1588 884.714L1589.17 885.645C1590.42 884.071 1591.64 882.476 1592.83 880.858L1591.62 879.967C1592.81 878.368 1593.96 876.748 1595.09 875.107L1596.33 875.957C1597.46 874.305 1598.57 872.632 1599.66 870.939L1598.39 870.13C1599.47 868.455 1600.51 866.76 1601.54 865.046L1602.82 865.814C1603.85 864.092 1604.85 862.352 1605.82 860.594L1604.51 859.868C1605.47 858.127 1606.41 856.369 1607.32 854.593L1608.65 855.277C1609.57 853.493 1610.46 851.692 1611.32 849.874L1609.96 849.232C1610.81 847.435 1611.64 845.623 1612.43 843.795L1613.81 844.395C1614.61 842.557 1615.39 840.704 1616.14 838.835L1614.74 838.277C1615.48 836.432 1616.2 834.572 1616.88 832.698L1618.29 833.214C1618.98 831.333 1619.64 829.438 1620.28 827.53L1618.85 827.056C1619.48 825.167 1620.08 823.264 1620.66 821.349L1622.1 821.781C1622.67 819.865 1623.22 817.936 1623.74 815.996L1622.3 815.606C1622.81 813.685 1623.3 811.752 1623.77 809.809L1625.23 810.157C1625.69 808.208 1626.13 806.248 1626.54 804.277L1625.07 803.971C1625.48 802.025 1625.86 800.07 1626.21 798.104L1627.69 798.37C1628.05 796.396 1628.37 794.413 1628.67 792.422L1627.19 792.198C1627.49 790.232 1627.76 788.258 1628 786.276L1629.49 786.459C1629.74 784.471 1629.95 782.476 1630.14 780.473L1628.65 780.33C1628.84 778.348 1629 776.359 1629.14 774.363L1630.63 774.464C1630.77 772.468 1630.88 770.466 1630.96 768.457L1629.46 768.396C1629.54 766.406 1629.6 764.411 1629.63 762.41L1631.13 762.431C1631.15 760.43 1631.16 758.424 1631.13 756.413L1629.63 756.431C1629.61 754.442 1629.56 752.448 1629.48 750.45L1630.98 750.392C1630.9 748.39 1630.8 746.383 1630.67 744.373L1629.17 744.47C1629.04 742.487 1628.89 740.501 1628.7 738.511L1630.2 738.375C1630.02 736.378 1629.81 734.378 1629.57 732.376L1628.08 732.551C1627.85 730.578 1627.59 728.602 1627.31 726.625L1628.79 726.412C1628.51 724.429 1628.2 722.445 1627.86 720.459L1626.38 720.71C1626.05 718.749 1625.69 716.786 1625.31 714.823L1626.78 714.534C1626.39 712.571 1625.98 710.607 1625.55 708.643L1624.08 708.969C1623.65 707.024 1623.19 705.079 1622.71 703.134L1624.16 702.772C1623.68 700.833 1623.17 698.894 1622.64 696.956L1621.19 697.355C1620.66 695.434 1620.11 693.514 1619.53 691.595L1620.96 691.16C1620.38 689.248 1619.78 687.337 1619.15 685.428L1617.73 685.898C1617.1 684.007 1616.45 682.118 1615.78 680.231L1617.19 679.727C1616.52 677.843 1615.82 675.962 1615.1 674.084L1613.7 674.623C1613.34 673.689 1612.97 672.756 1612.6 671.824C1612.23 670.892 1611.85 669.964 1611.47 669.039L1612.86 668.466C1612.09 666.606 1611.3 664.761 1610.49 662.932L1609.12 663.539C1608.31 661.707 1607.48 659.89 1606.63 658.09L1607.98 657.45C1607.13 655.632 1606.25 653.83 1605.35 652.045L1604.01 652.718C1603.11 650.927 1602.19 649.153 1601.25 647.395L1602.57 646.688C1601.63 644.915 1600.66 643.159 1599.68 641.421L1598.37 642.16C1597.38 640.417 1596.38 638.691 1595.35 636.983L1596.64 636.211C1595.6 634.486 1594.55 632.779 1593.47 631.09L1592.21 631.895C1591.13 630.206 1590.04 628.536 1588.93 626.884L1590.18 626.048C1589.05 624.376 1587.91 622.723 1586.75 621.09L1585.53 621.958C1584.38 620.328 1583.2 618.719 1582.01 617.128L1583.21 616.229C1582 614.616 1580.78 613.022 1579.53 611.448L1578.36 612.378C1577.12 610.811 1575.86 609.264 1574.59 607.737L1575.74 606.777C1574.46 605.229 1573.15 603.702 1571.83 602.197L1570.7 603.187C1569.38 601.685 1568.04 600.204 1566.69 598.744L1567.79 597.725C1566.43 596.25 1565.04 594.796 1563.64 593.364L1562.57 594.413C1561.17 592.981 1559.76 591.572 1558.33 590.185L1559.37 589.109C1557.93 587.709 1556.47 586.332 1555 584.978L1553.98 586.082C1552.51 584.728 1551.02 583.397 1549.52 582.09L1550.51 580.959C1548.99 579.637 1547.46 578.34 1545.91 577.067L1544.96 578.225C1543.42 576.955 1541.86 575.71 1540.29 574.489L1541.21 573.306C1539.62 572.069 1538.02 570.857 1536.4 569.67L1535.52 570.879C1533.91 569.697 1532.29 568.54 1530.65 567.409L1531.5 566.176C1529.85 565.031 1528.18 563.911 1526.5 562.818L1525.68 564.075C1524.01 562.985 1522.32 561.922 1520.62 560.885L1521.41 559.605C1519.69 558.558 1517.97 557.538 1516.23 556.545L1515.48 557.847C1513.75 556.855 1512 555.89 1510.24 554.953L1510.95 553.63C1509.17 552.683 1507.39 551.765 1505.59 550.876L1504.93 552.22C1503.14 551.333 1501.34 550.476 1499.54 549.647L1500.16 548.283C1498.33 547.444 1496.49 546.634 1494.65 545.854L1494.06 547.236C1492.22 546.459 1490.38 545.713 1488.52 544.996L1489.07 543.597C1487.19 542.872 1485.31 542.177 1483.41 541.513L1482.92 542.928C1481.03 542.267 1479.14 541.637 1477.25 541.037L1477.7 539.607C1475.78 539.002 1473.86 538.428 1471.93 537.886L1471.53 539.33C1469.61 538.79 1467.68 538.282 1465.75 537.806L1466.11 536.35C1464.15 535.869 1462.2 535.421 1460.23 535.005L1459.92 536.473C1457.98 536.06 1456.02 535.681 1454.06 535.334L1454.33 533.857C1452.35 533.506 1450.36 533.189 1448.38 532.906L1448.16 534.391C1446.19 534.11 1444.22 533.863 1442.24 533.65L1442.4 532.159C1440.4 531.944 1438.4 531.763 1436.4 531.617L1436.29 533.113C1434.31 532.968 1432.32 532.858 1430.33 532.783L1430.39 531.284C1428.38 531.208 1426.38 531.168 1424.37 531.163L1424.37 532.663C1422.38 532.658 1420.39 532.689 1418.4 532.755L1418.35 531.255C1416.34 531.322 1414.34 531.425 1412.33 531.563L1412.44 533.06C1410.45 533.197 1408.47 533.37 1406.49 533.58L1406.33 532.088C1404.34 532.299 1402.35 532.547 1400.36 532.831L1400.57 534.316C1398.6 534.596 1396.64 534.913 1394.68 535.266L1394.41 533.79C1392.44 534.146 1390.47 534.538 1388.5 534.968L1388.82 536.433C1386.89 536.857 1384.95 537.317 1383.02 537.814L1382.65 536.361C1380.71 536.859 1378.78 537.395 1376.85 537.967L1377.27 539.405C1375.37 539.97 1373.47 540.572 1371.58 541.21L1371.1 539.789C1369.2 540.427 1367.32 541.102 1365.43 541.813L1365.97 543.216C1365.03 543.569 1364.1 543.931 1363.17 544.302C1362.24 544.672 1361.32 545.051 1360.4 545.437L1359.82 544.055C1357.97 544.834 1356.13 545.645 1354.32 546.486L1354.95 547.847C1353.14 548.688 1351.35 549.559 1349.58 550.46L1348.9 549.124C1347.1 550.037 1345.33 550.98 1343.58 551.953L1344.31 553.264C1342.57 554.233 1340.85 555.232 1339.15 556.26L1338.38 554.977C1336.66 556.019 1334.96 557.091 1333.28 558.192L1334.1 559.445C1332.44 560.539 1330.8 561.66 1329.18 562.81L1328.31 561.588C1326.67 562.752 1325.06 563.945 1323.47 565.165L1324.38 566.355C1322.8 567.567 1321.24 568.806 1319.71 570.073L1318.75 568.916C1317.2 570.195 1315.68 571.501 1314.18 572.833L1315.18 573.955C1313.69 575.277 1312.22 576.625 1310.79 577.998L1309.75 576.913C1308.3 578.299 1306.87 579.711 1305.47 581.147L1306.54 582.195C1305.15 583.619 1303.79 585.067 1302.44 586.539L1301.34 585.529C1299.98 587.013 1298.66 588.521 1297.36 590.052L1298.5 591.023C1297.22 592.539 1295.95 594.078 1294.72 595.64L1293.54 594.708C1292.3 596.282 1291.08 597.878 1289.88 599.495L1291.09 600.386C1289.91 601.985 1288.75 603.605 1287.62 605.247L1286.39 604.396C1285.25 606.048 1284.14 607.721 1283.06 609.414L1284.32 610.223C1283.25 611.898 1282.2 613.593 1281.18 615.307L1279.89 614.54C1278.86 616.261 1277.86 618.001 1276.89 619.759L1278.2 620.485C1277.24 622.226 1276.31 623.985 1275.39 625.761L1274.06 625.076C1273.15 626.86 1272.26 628.662 1271.4 630.479L1272.75 631.122C1271.9 632.918 1271.08 634.73 1270.28 636.559L1268.9 635.958C1268.1 637.796 1267.33 639.65 1266.58 641.518L1267.97 642.076C1267.23 643.921 1266.52 645.781 1265.83 647.655L1264.42 647.139C1263.73 649.02 1263.07 650.915 1262.44 652.823L1263.86 653.297C1263.23 655.187 1262.63 657.089 1262.05 659.004L1260.62 658.572C1260.04 660.488 1259.49 662.417 1258.97 664.357L1260.42 664.747C1259.9 666.668 1259.41 668.601 1258.94 670.544L1257.49 670.196C1257.02 672.145 1256.58 674.106 1256.17 676.076L1257.64 676.383C1257.23 678.328 1256.85 680.284 1256.5 682.249L1255.02 681.983C1254.67 683.957 1254.34 685.94 1254.04 687.931L1255.52 688.155C1255.23 690.121 1254.95 692.095 1254.71 694.077L1253.22 693.894C1252.98 695.882 1252.76 697.878 1252.57 699.881L1254.06 700.023C1253.87 702.005 1253.71 703.994 1253.58 705.99L1252.08 705.889C1251.94 707.885 1251.83 709.887 1251.75 711.896L1253.25 711.957C1253.17 713.947 1253.11 715.942 1253.09 717.943L1251.59 717.922C1251.56 719.923 1251.56 721.93 1251.58 723.941L1253.08 723.922C1253.11 725.911 1253.16 727.905 1253.23 729.903L1251.73 729.961C1251.81 731.964 1251.92 733.97 1252.05 735.981L1253.54 735.883C1253.67 737.866 1253.83 739.853 1254.01 741.842L1252.52 741.978C1252.7 743.975 1252.91 745.975 1253.14 747.977L1254.63 747.802C1254.86 749.775 1255.12 751.751 1255.4 753.728L1253.92 753.941C1254.2 755.924 1254.51 757.908 1254.85 759.894L1256.33 759.643C1256.66 761.604 1257.02 763.567 1257.41 765.53L1255.93 765.819C1256.32 767.782 1256.73 769.746 1257.17 771.71L1258.63 771.385C1259.06 773.33 1259.52 775.274 1260 777.219L1258.55 777.581C1259.03 779.52 1259.54 781.459 1260.07 783.397L1261.52 782.998C1262.05 784.919 1262.61 786.84 1263.19 788.758L1261.75 789.193C1262.33 791.105 1262.93 793.016 1263.56 794.925L1264.99 794.456C1265.61 796.346 1266.26 798.235 1266.93 800.122L1265.52 800.626Z" stroke="#6EC4CF" stroke-width="3" stroke-dasharray="6 6"/>
<path d="M1302.53 683.626C1303.21 685.51 1303.91 687.391 1304.63 689.27L1306.03 688.731C1306.39 689.664 1306.75 690.597 1307.13 691.529C1307.5 692.461 1307.87 693.389 1308.26 694.314L1306.87 694.887C1307.64 696.747 1308.43 698.592 1309.24 700.421L1310.61 699.814C1311.42 701.646 1312.25 703.463 1313.1 705.263L1311.74 705.903C1312.6 707.721 1313.48 709.523 1314.38 711.308L1315.72 710.635C1316.62 712.426 1317.54 714.201 1318.48 715.958L1317.15 716.665C1318.1 718.438 1319.07 720.194 1320.05 721.932L1321.36 721.193C1322.34 722.936 1323.35 724.662 1324.38 726.37L1323.09 727.142C1324.13 728.867 1325.18 730.574 1326.25 732.263L1327.52 731.458C1328.59 733.147 1329.68 734.817 1330.79 736.469L1329.55 737.305C1330.67 738.977 1331.81 740.63 1332.97 742.264L1334.2 741.396C1335.35 743.025 1336.52 744.635 1337.72 746.225L1336.51 747.124C1337.72 748.738 1338.95 750.331 1340.19 751.905L1341.37 750.975C1342.61 752.542 1343.86 754.09 1345.13 755.616L1343.98 756.576C1345.27 758.124 1346.58 759.651 1347.9 761.157L1349.03 760.167C1350.35 761.669 1351.68 763.149 1353.04 764.609L1351.93 765.628C1353.3 767.104 1354.68 768.557 1356.08 769.989L1357.16 768.941C1358.55 770.372 1359.97 771.781 1361.4 773.168L1360.35 774.244C1361.8 775.644 1363.25 777.021 1364.73 778.375L1365.74 777.271C1367.21 778.625 1368.7 779.956 1370.2 781.263L1369.22 782.395C1370.74 783.716 1372.27 785.013 1373.82 786.286L1374.77 785.128C1376.31 786.398 1377.87 787.643 1379.43 788.864L1378.51 790.048C1380.1 791.285 1381.71 792.497 1383.32 793.684L1384.21 792.475C1385.82 793.656 1387.44 794.813 1389.08 795.944L1388.22 797.177C1389.88 798.323 1391.54 799.442 1393.22 800.535L1394.04 799.278C1395.72 800.368 1397.4 801.431 1399.1 802.468L1398.32 803.748C1400.04 804.796 1401.76 805.816 1403.5 806.809L1404.24 805.506C1405.98 806.499 1407.73 807.463 1409.48 808.4L1408.78 809.724C1410.55 810.67 1412.34 811.588 1414.13 812.478L1414.8 811.134C1416.59 812.02 1418.38 812.878 1420.19 813.707L1419.57 815.07C1421.39 815.909 1423.23 816.719 1425.08 817.5L1425.66 816.118C1427.5 816.894 1429.35 817.641 1431.2 818.357L1430.66 819.756C1432.54 820.482 1434.42 821.176 1436.31 821.84L1436.81 820.425C1438.69 821.086 1440.58 821.717 1442.48 822.316L1442.03 823.746C1443.94 824.352 1445.87 824.925 1447.79 825.468L1448.2 824.024C1450.12 824.563 1452.05 825.071 1453.98 825.547L1453.62 827.004C1455.57 827.484 1457.53 827.933 1459.49 828.348L1459.8 826.88C1461.75 827.293 1463.71 827.673 1465.66 828.019L1465.4 829.496C1467.38 829.847 1469.36 830.164 1471.35 830.447L1471.56 828.962C1473.53 829.243 1475.51 829.49 1477.49 829.703L1477.33 831.194C1479.32 831.41 1481.32 831.59 1483.32 831.736L1483.43 830.24C1485.42 830.385 1487.41 830.495 1489.39 830.57L1489.34 832.069C1491.34 832.145 1493.35 832.185 1495.36 832.19L1495.36 830.69C1497.35 830.695 1499.34 830.665 1501.33 830.599L1501.38 832.098C1503.39 832.031 1505.39 831.929 1507.39 831.79L1507.29 830.293C1509.27 830.156 1511.26 829.983 1513.24 829.773L1513.39 831.265C1515.39 831.054 1517.38 830.807 1519.37 830.522L1519.16 829.038C1521.12 828.757 1523.09 828.44 1525.05 828.087L1525.31 829.563C1527.29 829.207 1529.26 828.815 1531.22 828.385L1530.9 826.92C1532.84 826.496 1534.78 826.036 1536.71 825.54L1537.08 826.992C1539.02 826.494 1540.95 825.958 1542.88 825.386L1542.45 823.948C1544.36 823.383 1546.26 822.782 1548.15 822.143L1548.63 823.565C1550.52 822.926 1552.41 822.251 1554.29 821.54L1553.76 820.137C1554.69 819.784 1555.62 819.423 1556.55 819.052C1557.48 818.681 1558.41 818.302 1559.33 817.916L1559.91 819.299C1561.76 818.519 1563.6 817.708 1565.41 816.867L1564.78 815.507C1566.59 814.666 1568.38 813.794 1570.15 812.893L1570.83 814.229C1572.62 813.316 1574.39 812.373 1576.14 811.4L1575.41 810.089C1577.16 809.12 1578.88 808.121 1580.57 807.093L1581.35 808.377C1583.07 807.334 1584.77 806.262 1586.45 805.162L1585.62 803.908C1587.29 802.815 1588.93 801.693 1590.55 800.543L1591.42 801.766C1593.05 800.601 1594.67 799.409 1596.26 798.188L1595.35 796.998C1596.93 795.786 1598.49 794.547 1600.02 793.281L1600.97 794.437C1602.52 793.158 1604.05 791.852 1605.55 790.52L1604.55 789.399C1606.04 788.077 1607.5 786.728 1608.94 785.355L1609.98 786.44C1611.43 785.054 1612.86 783.643 1614.26 782.206L1613.19 781.158C1614.58 779.735 1615.94 778.286 1617.28 776.814L1618.39 777.824C1619.74 776.34 1621.07 774.832 1622.37 773.301L1621.22 772.331C1622.51 770.814 1623.77 769.275 1625.01 767.714L1626.19 768.645C1627.43 767.071 1628.65 765.476 1629.85 763.858L1628.64 762.967C1629.82 761.368 1630.97 759.748 1632.1 758.107L1633.34 758.957C1634.48 757.305 1635.59 755.632 1636.67 753.939L1635.41 753.13C1636.48 751.455 1637.53 749.76 1638.55 748.046L1639.84 748.814C1640.86 747.092 1641.86 745.352 1642.83 743.594L1641.52 742.868C1642.48 741.127 1643.42 739.369 1644.33 737.593L1645.67 738.277C1646.58 736.493 1647.47 734.692 1648.33 732.874L1646.97 732.232C1647.82 730.435 1648.65 728.623 1649.45 726.795L1650.82 727.395C1651.62 725.557 1652.4 723.704 1653.15 721.835L1651.76 721.277C1652.5 719.432 1653.21 717.572 1653.9 715.698L1655.3 716.214C1655.99 714.333 1656.65 712.438 1657.29 710.53L1655.87 710.056C1656.5 708.167 1657.1 706.264 1657.67 704.349L1659.11 704.781C1659.69 702.865 1660.24 700.936 1660.76 698.996L1659.31 698.606C1659.83 696.685 1660.32 694.752 1660.78 692.809L1662.24 693.157C1662.71 691.208 1663.15 689.248 1663.56 687.277L1662.09 686.971C1662.49 685.025 1662.87 683.07 1663.23 681.104L1664.7 681.37C1665.06 679.396 1665.39 677.413 1665.69 675.422L1664.2 675.198C1664.5 673.232 1664.77 671.258 1665.02 669.276L1666.5 669.459C1666.75 667.471 1666.97 665.476 1667.16 663.473L1665.66 663.33C1665.85 661.348 1666.02 659.359 1666.15 657.363L1667.65 657.464C1667.78 655.468 1667.89 653.466 1667.97 651.457L1666.48 651.396C1666.56 649.406 1666.61 647.411 1666.64 645.41L1668.14 645.431C1668.17 643.43 1668.17 641.424 1668.15 639.413L1666.65 639.431C1666.62 637.442 1666.57 635.448 1666.49 633.45L1667.99 633.392C1667.91 631.39 1667.81 629.383 1667.68 627.373L1666.18 627.47C1666.05 625.487 1665.9 623.501 1665.72 621.511L1667.21 621.375C1667.03 619.378 1666.82 617.378 1666.59 615.376L1665.1 615.551C1664.86 613.578 1664.61 611.602 1664.32 609.625L1665.81 609.412C1665.52 607.429 1665.21 605.445 1664.88 603.459L1663.4 603.71C1663.06 601.749 1662.71 599.786 1662.32 597.823L1663.79 597.534C1663.41 595.571 1663 593.607 1662.56 591.643L1661.1 591.969C1660.66 590.024 1660.21 588.079 1659.72 586.134L1661.18 585.772C1660.69 583.833 1660.19 581.894 1659.65 579.956L1658.21 580.355C1657.68 578.434 1657.12 576.514 1656.54 574.595L1657.98 574.16C1657.4 572.248 1656.79 570.337 1656.16 568.428L1654.74 568.898C1654.12 567.007 1653.47 565.118 1652.79 563.231L1654.21 562.727C1653.53 560.843 1652.84 558.962 1652.11 557.084L1650.71 557.623C1650.35 556.689 1649.99 555.756 1649.61 554.824C1649.24 553.892 1648.87 552.964 1648.48 552.039L1649.87 551.466C1649.1 549.606 1648.31 547.761 1647.5 545.932L1646.13 546.539C1645.32 544.707 1644.49 542.89 1643.64 541.09L1645 540.45C1644.14 538.632 1643.26 536.83 1642.36 535.045L1641.02 535.718C1640.12 533.927 1639.2 532.153 1638.26 530.395L1639.59 529.688C1638.64 527.915 1637.67 526.159 1636.69 524.421L1635.38 525.16C1634.4 523.417 1633.39 521.691 1632.36 519.983L1633.65 519.211C1632.61 517.486 1631.56 515.779 1630.49 514.09L1629.22 514.895C1628.15 513.206 1627.06 511.536 1625.95 509.884L1627.19 509.048C1626.07 507.376 1624.93 505.723 1623.77 504.09L1622.55 504.958C1621.39 503.328 1620.22 501.719 1619.02 500.128L1620.23 499.229C1619.02 497.616 1617.79 496.022 1616.55 494.448L1615.37 495.378C1614.13 493.811 1612.88 492.264 1611.61 490.737L1612.76 489.777C1611.47 488.229 1610.16 486.702 1608.84 485.197L1607.71 486.187C1606.39 484.685 1605.06 483.204 1603.71 481.744L1604.81 480.725C1603.44 479.25 1602.06 477.796 1600.66 476.364L1599.58 477.413C1598.19 475.981 1596.77 474.572 1595.34 473.185L1596.39 472.109C1594.94 470.709 1593.49 469.332 1592.01 467.978L1591 469.082C1589.53 467.728 1588.04 466.397 1586.54 465.09L1587.52 463.959C1586 462.637 1584.47 461.34 1582.93 460.067L1581.97 461.225C1580.43 459.955 1578.87 458.71 1577.31 457.489L1578.23 456.306C1576.64 455.069 1575.03 453.857 1573.42 452.67L1572.53 453.879C1570.92 452.697 1569.3 451.54 1567.66 450.409L1568.52 449.176C1566.86 448.031 1565.2 446.911 1563.52 445.818L1562.7 447.075C1561.02 445.985 1559.34 444.922 1557.64 443.885L1558.42 442.605C1556.71 441.558 1554.98 440.538 1553.24 439.545L1552.5 440.847C1550.76 439.855 1549.01 438.89 1547.26 437.953L1547.96 436.63C1546.19 435.683 1544.4 434.765 1542.61 433.876L1541.94 435.22C1540.15 434.333 1538.36 433.476 1536.55 432.647L1537.17 431.283C1535.35 430.444 1533.51 429.634 1531.66 428.854L1531.08 430.236C1529.24 429.459 1527.39 428.713 1525.54 427.996L1526.08 426.597C1524.2 425.872 1522.32 425.177 1520.43 424.513L1519.93 425.928C1518.05 425.267 1516.16 424.637 1514.26 424.037L1514.71 422.607C1512.8 422.002 1510.87 421.428 1508.95 420.886L1508.54 422.33C1506.62 421.79 1504.69 421.282 1502.76 420.806L1503.12 419.35C1501.17 418.869 1499.21 418.421 1497.25 418.005L1496.94 419.473C1494.99 419.06 1493.04 418.681 1491.08 418.334L1491.34 416.857C1489.36 416.506 1487.38 416.189 1485.39 415.906L1485.18 417.391C1483.21 417.11 1481.23 416.863 1479.25 416.65L1479.41 415.159C1477.42 414.944 1475.42 414.763 1473.42 414.617L1473.31 416.113C1471.32 415.968 1469.33 415.858 1467.35 415.783L1467.4 414.284C1465.4 414.208 1463.39 414.168 1461.38 414.163L1461.38 415.663C1459.39 415.658 1457.4 415.689 1455.41 415.755L1455.36 414.255C1453.36 414.322 1451.35 414.425 1449.35 414.563L1449.45 416.06C1447.47 416.197 1445.49 416.37 1443.5 416.58L1443.35 415.088C1441.35 415.299 1439.36 415.547 1437.37 415.831L1437.58 417.316C1435.62 417.596 1433.65 417.913 1431.69 418.266L1431.43 416.79C1429.45 417.146 1427.48 417.538 1425.52 417.968L1425.84 419.433C1423.9 419.857 1421.96 420.317 1420.03 420.814L1419.66 419.361C1417.72 419.859 1415.79 420.395 1413.86 420.967L1414.29 422.405C1412.38 422.97 1410.48 423.572 1408.59 424.21L1408.11 422.789C1406.22 423.427 1404.33 424.102 1402.45 424.813L1402.98 426.216C1402.05 426.569 1401.12 426.931 1400.19 427.302C1399.26 427.672 1398.33 428.051 1397.41 428.437L1396.83 427.055C1394.98 427.834 1393.15 428.645 1391.33 429.486L1391.96 430.847C1390.15 431.688 1388.36 432.559 1386.59 433.46L1385.91 432.124C1384.12 433.037 1382.35 433.98 1380.6 434.953L1381.33 436.264C1379.58 437.233 1377.86 438.232 1376.17 439.26L1375.39 437.977C1373.67 439.019 1371.97 440.091 1370.29 441.192L1371.12 442.445C1369.45 443.539 1367.81 444.66 1366.19 445.81L1365.32 444.588C1363.69 445.752 1362.07 446.945 1360.48 448.165L1361.39 449.355C1359.81 450.567 1358.25 451.806 1356.72 453.073L1355.77 451.916C1354.22 453.195 1352.69 454.501 1351.19 455.833L1352.19 456.955C1350.7 458.277 1349.24 459.625 1347.8 460.998L1346.76 459.913C1345.31 461.299 1343.88 462.711 1342.48 464.147L1343.55 465.195C1342.16 466.619 1340.8 468.067 1339.46 469.539L1338.35 468.529C1337 470.013 1335.67 471.521 1334.37 473.052L1335.52 474.023C1334.23 475.539 1332.97 477.078 1331.73 478.64L1330.56 477.708C1329.31 479.282 1328.09 480.878 1326.9 482.495L1328.1 483.386C1326.92 484.985 1325.77 486.605 1324.64 488.247L1323.4 487.396C1322.26 489.048 1321.15 490.721 1320.07 492.414L1321.33 493.223C1320.26 494.898 1319.21 496.593 1318.19 498.307L1316.9 497.54C1315.88 499.261 1314.88 501.001 1313.91 502.759L1315.22 503.485C1314.26 505.226 1313.32 506.985 1312.41 508.761L1311.07 508.076C1310.16 509.86 1309.27 511.662 1308.41 513.479L1309.77 514.122C1308.92 515.918 1308.09 517.73 1307.29 519.559L1305.92 518.958C1305.12 520.796 1304.34 522.65 1303.59 524.518L1304.98 525.076C1304.24 526.921 1303.53 528.781 1302.85 530.655L1301.44 530.139C1300.75 532.02 1300.09 533.915 1299.45 535.823L1300.87 536.297C1300.24 538.187 1299.64 540.089 1299.07 542.004L1297.63 541.572C1297.05 543.488 1296.5 545.417 1295.98 547.357L1297.43 547.747C1296.91 549.668 1296.42 551.601 1295.96 553.544L1294.5 553.196C1294.03 555.145 1293.6 557.106 1293.18 559.076L1294.65 559.383C1294.25 561.328 1293.87 563.284 1293.51 565.249L1292.04 564.983C1291.68 566.957 1291.35 568.94 1291.05 570.931L1292.54 571.155C1292.24 573.121 1291.97 575.095 1291.72 577.077L1290.24 576.894C1289.99 578.882 1289.77 580.878 1289.58 582.881L1291.08 583.023C1290.89 585.005 1290.73 586.994 1290.59 588.99L1289.09 588.889C1288.96 590.885 1288.85 592.887 1288.77 594.896L1290.26 594.957C1290.18 596.947 1290.13 598.942 1290.1 600.943L1288.6 600.922C1288.57 602.923 1288.57 604.93 1288.59 606.941L1290.09 606.922C1290.12 608.911 1290.17 610.905 1290.25 612.903L1288.75 612.961C1288.83 614.964 1288.93 616.97 1289.06 618.981L1290.56 618.883C1290.69 620.866 1290.84 622.853 1291.02 624.842L1289.53 624.978C1289.71 626.975 1289.92 628.975 1290.15 630.977L1291.64 630.802C1291.88 632.775 1292.13 634.751 1292.42 636.728L1290.93 636.941C1291.22 638.924 1291.53 640.908 1291.86 642.894L1293.34 642.643C1293.68 644.604 1294.03 646.567 1294.42 648.53L1292.95 648.819C1293.33 650.782 1293.74 652.746 1294.18 654.71L1295.64 654.385C1296.08 656.33 1296.53 658.274 1297.02 660.219L1295.56 660.581C1296.05 662.52 1296.55 664.459 1297.09 666.397L1298.53 665.998C1299.06 667.919 1299.62 669.84 1300.2 671.758L1298.76 672.193C1299.34 674.105 1299.95 676.016 1300.58 677.925L1302 677.456C1302.62 679.346 1303.27 681.235 1303.95 683.122L1302.53 683.626Z" stroke="#6EC4CF" stroke-width="3" stroke-dasharray="6 6"/>
</g>
<defs>
<clipPath id="clip0_1563_2976">
<rect width="1440" height="829" fill="white"/>
</clipPath>
</defs>
</svg>
