<svg width="14" height="14" viewBox="0 0 14 14" fill="none" xmlns="http://www.w3.org/2000/svg">
<path d="M12.7 13.75L7.975 9.025C7.6 9.325 7.16875 9.5625 6.68125 9.7375C6.19375 9.9125 5.675 10 5.125 10C3.7625 10 2.6095 9.528 1.666 8.584C0.7225 7.64 0.2505 6.487 0.25 5.125C0.25 3.7625 0.722 2.6095 1.666 1.666C2.61 0.7225 3.763 0.2505 5.125 0.25C6.4875 0.25 7.6405 0.722 8.584 1.666C9.5275 2.61 9.9995 3.763 10 5.125C10 5.675 9.9125 6.19375 9.7375 6.68125C9.5625 7.16875 9.325 7.6 9.025 7.975L13.75 12.7L12.7 13.75ZM5.125 8.5C6.0625 8.5 6.8595 8.17175 7.516 7.51525C8.1725 6.85875 8.5005 6.062 8.5 5.125C8.5 4.1875 8.17175 3.3905 7.51525 2.734C6.85875 2.0775 6.062 1.7495 5.125 1.75C4.1875 1.75 3.3905 2.07825 2.734 2.73475C2.0775 3.39125 1.7495 4.188 1.75 5.125C1.75 6.0625 2.07825 6.8595 2.73475 7.516C3.39125 8.1725 4.188 8.5005 5.125 8.5Z" fill="#8A8A8A"/>
</svg>
